ffmpeg started on 2026-01-16 at 16:50:16
Report written to "D:\Convert\FFMetrics\reports\psnr_report-6.txt"
Log level: 32
Command line:
ffmpeg -hide_banner -nostdin -r 24000/1001 -i "F:\\Convert\\files\\[DC] Make Heroine ga Oosugiru - 07_Telegram_HEVC(HB-8).mkv" -r 24000/1001 -i "F:\\Convert\\files\\[DC] Make Heroine ga Oosugiru - 07_Telegram.mp4" -lavfi "[0:v]settb=AVTB,setpts=PTS-STARTPTS,format=pix_fmts=yuv420p10le,fps=24000/1001,scale=1920:1080:flags=lanczos:param0=3:out_range=limited:out_color_matrix=bt709:out_chroma_loc=left,setsar=1/1,setdar=(1920/1080)*(1/1),colorspace=format=yuv420p10:range=tv:primaries=bt709:trc=bt709:space=bt709:fast=0[main];[1:v]settb=AVTB,setpts=PTS-STARTPTS,format=pix_fmts=yuv420p,fps=24000/1001,scale=1920:1080:flags=lanczos:param0=3:out_range=limited:out_color_matrix=bt709:out_chroma_loc=left,setsar=1.000,setdar=1.778,colorspace=format=yuv420p:range=tv:primaries=bt709:trc=bt709:space=bt709:fast=0[ref];[main][ref]psnr=eof_action=endall:stats_file='D\\:/Convert/FFMetrics/logs/psnr_logfile-6.txt'" -f null -
Input #0, matroska,webm, from 'F:\Convert\files\[DC] Make Heroine ga Oosugiru - 07_Telegram_HEVC(HB-8).mkv':
  Metadata:
    creation_time   : 2026-01-16T08:42:43.000000Z
    ENCODER         : Lavf61.7.100
  Duration: 00:24:06.81, start: -0.021000, bitrate: 862 kb/s
  Stream #0:0: Video: hevc (Main 10), yuv420p10le(tv, bt709), 1920x1080 [SAR 1:1 DAR 16:9], 23.98 fps, 23.98 tbr, 1k tbn (default)
      Metadata:
        BPS             : 664904
        DURATION        : 00:24:06.569708333
        NUMBER_OF_FRAMES: 34683
        NUMBER_OF_BYTES : 120228825
        _STATISTICS_WRITING_APP: mkvpropedit v94.0 ('Initiate') 64-bit
        _STATISTICS_WRITING_DATE_UTC: 2026-01-16 13:50:16
        _STATISTICS_TAGS: BPS DURATION NUMBER_OF_FRAMES NUMBER_OF_BYTES
  Stream #0:1: Audio: aac (LC), 48000 Hz, stereo, fltp (default)
      Metadata:
        title           : Stereo
        BPS             : 193190
        DURATION        : 00:24:06.784000000
        NUMBER_OF_FRAMES: 67819
        NUMBER_OF_BYTES : 34938166
        _STATISTICS_WRITING_APP: mkvpropedit v94.0 ('Initiate') 64-bit
        _STATISTICS_WRITING_DATE_UTC: 2026-01-16 13:50:16
        _STATISTICS_TAGS: BPS DURATION NUMBER_OF_FRAMES NUMBER_OF_BYTES
Input #1, mov,mp4,m4a,3gp,3g2,mj2, from 'F:\Convert\files\[DC] Make Heroine ga Oosugiru - 07_Telegram.mp4':
  Metadata:
    major_brand     : isom
    minor_version   : 512
    compatible_brands: isomiso2avc1mp41
    encoder         : Lavf60.16.100
  Duration: 00:24:06.74, start: 0.000000, bitrate: 3764 kb/s
  Stream #1:0[0x1](und): Video: h264 (High) (avc1 / 0x31637661), yuv420p(tv, bt709, progressive), 1920x1080 [SAR 1:1 DAR 16:9], 3616 kb/s, 23.98 fps, 23.98 tbr, 24k tbn (default)
      Metadata:
        handler_name    : VideoHandler
        vendor_id       : [0][0][0][0]
        encoder         : Lavc60.31.102 h264_qsv
  Stream #1:1[0x2](und): Audio: aac (HE-AACv2) (mp4a / 0x6134706D), 48000 Hz, stereo, fltp, 144 kb/s (default)
      Metadata:
        handler_name    : SoundHandler
        vendor_id       : [0][0][0][0]
Stream mapping:
  Stream #0:0 (hevc) -> settb:default
  Stream #1:0 (h264) -> settb:default
  psnr:default -> Stream #0:0 (wrapped_avframe)
  Stream #0:1 -> #0:1 (aac (native) -> pcm_s16le (native))
Output #0, null, to 'pipe:':
  Metadata:
    encoder         : Lavf61.7.100
  Stream #0:0: Video: wrapped_avframe, yuv420p10le(tv, bt709, progressive), 1920x1080 [SAR 1:1 DAR 16:9], q=2-31, 200 kb/s, 23.98 fps, 23.98 tbn
      Metadata:
        encoder         : Lavc61.19.100 wrapped_avframe
  Stream #0:1: Audio: pcm_s16le, 48000 Hz, stereo, s16, 1536 kb/s (default)
      Metadata:
        title           : Stereo
        BPS             : 193190
        DURATION        : 00:24:06.784000000
        NUMBER_OF_FRAMES: 67819
        NUMBER_OF_BYTES : 34938166
        _STATISTICS_WRITING_APP: mkvpropedit v94.0 ('Initiate') 64-bit
        _STATISTICS_WRITING_DATE_UTC: 2026-01-16 13:50:16
        _STATISTICS_TAGS: BPS DURATION NUMBER_OF_FRAMES NUMBER_OF_BYTES
        encoder         : Lavc61.19.100 pcm_s16le
frame=  132 fps=0.0 q=-0.0 size=N/A time=00:00:05.50 bitrate=N/A speed=10.8x    frame=  336 fps=323 q=-0.0 size=N/A time=00:00:14.01 bitrate=N/A speed=13.5x    frame=  536 fps=345 q=-0.0 size=N/A time=00:00:22.35 bitrate=N/A speed=14.4x    frame=  743 fps=360 q=-0.0 size=N/A time=00:00:30.98 bitrate=N/A speed=  15x    frame=  922 fps=358 q=-0.0 size=N/A time=00:00:38.45 bitrate=N/A speed=14.9x    frame= 1076 fps=347 q=-0.0 size=N/A time=00:00:44.87 bitrate=N/A speed=14.5x    frame= 1242 fps=344 q=-0.0 size=N/A time=00:00:51.80 bitrate=N/A speed=14.4x    frame= 1413 fps=342 q=-0.0 size=N/A time=00:00:58.93 bitrate=N/A speed=14.3x    frame= 1559 fps=336 q=-0.0 size=N/A time=00:01:05.02 bitrate=N/A speed=  14x    frame= 1721 fps=334 q=-0.0 size=N/A time=00:01:11.78 bitrate=N/A speed=13.9x    frame= 1894 fps=334 q=-0.0 size=N/A time=00:01:18.99 bitrate=N/A speed=13.9x    frame= 2051 fps=332 q=-0.0 size=N/A time=00:01:25.54 bitrate=N/A speed=13.8x    frame= 2174 fps=324 q=-0.0 size=N/A time=00:01:30.67 bitrate=N/A speed=13.5x    frame= 2326 fps=322 q=-0.0 size=N/A time=00:01:37.01 bitrate=N/A speed=13.4x    frame= 2465 fps=319 q=-0.0 size=N/A time=00:01:42.81 bitrate=N/A speed=13.3x    frame= 2610 fps=316 q=-0.0 size=N/A time=00:01:48.85 bitrate=N/A speed=13.2x    frame= 2799 fps=319 q=-0.0 size=N/A time=00:01:56.74 bitrate=N/A speed=13.3x    frame= 2976 fps=321 q=-0.0 size=N/A time=00:02:04.12 bitrate=N/A speed=13.4x    frame= 3185 fps=325 q=-0.0 size=N/A time=00:02:12.84 bitrate=N/A speed=13.5x    frame= 3390 fps=329 q=-0.0 size=N/A time=00:02:21.39 bitrate=N/A speed=13.7x    frame= 3602 fps=333 q=-0.0 size=N/A time=00:02:30.23 bitrate=N/A speed=13.9x    frame= 3802 fps=335 q=-0.0 size=N/A time=00:02:38.57 bitrate=N/A speed=  14x    frame= 4015 fps=338 q=-0.0 size=N/A time=00:02:47.45 bitrate=N/A speed=14.1x    frame= 4219 fps=341 q=-0.0 size=N/A time=00:02:55.96 bitrate=N/A speed=14.2x    frame= 4423 fps=343 q=-0.0 size=N/A time=00:03:04.47 bitrate=N/A speed=14.3x    frame= 4632 fps=345 q=-0.0 size=N/A time=00:03:13.19 bitrate=N/A speed=14.4x    frame= 4844 fps=347 q=-0.0 size=N/A time=00:03:22.03 bitrate=N/A speed=14.5x    frame= 5047 fps=349 q=-0.0 size=N/A time=00:03:30.50 bitrate=N/A speed=14.6x    frame= 5240 fps=350 q=-0.0 size=N/A time=00:03:38.55 bitrate=N/A speed=14.6x    frame= 5438 fps=351 q=-0.0 size=N/A time=00:03:46.80 bitrate=N/A speed=14.6x    frame= 5647 fps=353 q=-0.0 size=N/A time=00:03:55.52 bitrate=N/A speed=14.7x    frame= 5849 fps=354 q=-0.0 size=N/A time=00:04:03.95 bitrate=N/A speed=14.8x    frame= 6057 fps=356 q=-0.0 size=N/A time=00:04:12.62 bitrate=N/A speed=14.8x    frame= 6262 fps=357 q=-0.0 size=N/A time=00:04:21.17 bitrate=N/A speed=14.9x    frame= 6462 fps=358 q=-0.0 size=N/A time=00:04:29.51 bitrate=N/A speed=14.9x    frame= 6674 fps=359 q=-0.0 size=N/A time=00:04:38.36 bitrate=N/A speed=  15x    frame= 6870 fps=360 q=-0.0 size=N/A time=00:04:46.53 bitrate=N/A speed=  15x    frame= 7068 fps=360 q=-0.0 size=N/A time=00:04:54.79 bitrate=N/A speed=  15x    frame= 7272 fps=361 q=-0.0 size=N/A time=00:05:03.30 bitrate=N/A speed=15.1x    frame= 7468 fps=362 q=-0.0 size=N/A time=00:05:11.47 bitrate=N/A speed=15.1x    frame= 7653 fps=362 q=-0.0 size=N/A time=00:05:19.19 bitrate=N/A speed=15.1x    frame= 7834 fps=362 q=-0.0 size=N/A time=00:05:26.74 bitrate=N/A speed=15.1x    frame= 8036 fps=362 q=-0.0 size=N/A time=00:05:35.16 bitrate=N/A speed=15.1x    frame= 8237 fps=363 q=-0.0 size=N/A time=00:05:43.55 bitrate=N/A speed=15.1x    frame= 8437 fps=363 q=-0.0 size=N/A time=00:05:51.89 bitrate=N/A speed=15.2x    frame= 8645 fps=364 q=-0.0 size=N/A time=00:06:00.56 bitrate=N/A speed=15.2x    frame= 8848 fps=365 q=-0.0 size=N/A time=00:06:09.03 bitrate=N/A speed=15.2x    frame= 9055 fps=365 q=-0.0 size=N/A time=00:06:17.66 bitrate=N/A speed=15.2x    frame= 9258 fps=366 q=-0.0 size=N/A time=00:06:26.13 bitrate=N/A speed=15.3x    frame= 9462 fps=366 q=-0.0 size=N/A time=00:06:34.64 bitrate=N/A speed=15.3x    frame= 9672 fps=367 q=-0.0 size=N/A time=00:06:43.40 bitrate=N/A speed=15.3x    frame= 9873 fps=368 q=-0.0 size=N/A time=00:06:51.78 bitrate=N/A speed=15.3x    frame=10074 fps=368 q=-0.0 size=N/A time=00:07:00.16 bitrate=N/A speed=15.4x    frame=10275 fps=368 q=-0.0 size=N/A time=00:07:08.55 bitrate=N/A speed=15.4x    frame=10476 fps=369 q=-0.0 size=N/A time=00:07:16.93 bitrate=N/A speed=15.4x    frame=10670 fps=369 q=-0.0 size=N/A time=00:07:25.02 bitrate=N/A speed=15.4x    frame=10871 fps=369 q=-0.0 size=N/A time=00:07:33.41 bitrate=N/A speed=15.4x    frame=11077 fps=370 q=-0.0 size=N/A time=00:07:42.00 bitrate=N/A speed=15.4x    frame=11267 fps=370 q=-0.0 size=N/A time=00:07:49.92 bitrate=N/A speed=15.4x    frame=11478 fps=370 q=-0.0 size=N/A time=00:07:58.72 bitrate=N/A speed=15.4x    frame=11669 fps=371 q=-0.0 size=N/A time=00:08:06.69 bitrate=N/A speed=15.5x    frame=11876 fps=371 q=-0.0 size=N/A time=00:08:15.32 bitrate=N/A speed=15.5x    frame=12082 fps=371 q=-0.0 size=N/A time=00:08:23.92 bitrate=N/A speed=15.5x    frame=12285 fps=372 q=-0.0 size=N/A time=00:08:32.38 bitrate=N/A speed=15.5x    frame=12480 fps=372 q=-0.0 size=N/A time=00:08:40.52 bitrate=N/A speed=15.5x    frame=12687 fps=372 q=-0.0 size=N/A time=00:08:49.15 bitrate=N/A speed=15.5x    frame=12887 fps=373 q=-0.0 size=N/A time=00:08:57.49 bitrate=N/A speed=15.5x    frame=13086 fps=373 q=-0.0 size=N/A time=00:09:05.79 bitrate=N/A speed=15.5x    frame=13285 fps=373 q=-0.0 size=N/A time=00:09:14.09 bitrate=N/A speed=15.6x    frame=13474 fps=373 q=-0.0 size=N/A time=00:09:21.97 bitrate=N/A speed=15.6x    frame=13675 fps=373 q=-0.0 size=N/A time=00:09:30.36 bitrate=N/A speed=15.6x    frame=13875 fps=373 q=-0.0 size=N/A time=00:09:38.70 bitrate=N/A speed=15.6x    frame=14074 fps=373 q=-0.0 size=N/A time=00:09:47.00 bitrate=N/A speed=15.6x    frame=14264 fps=373 q=-0.0 size=N/A time=00:09:54.92 bitrate=N/A speed=15.6x    frame=14466 fps=374 q=-0.0 size=N/A time=00:10:03.35 bitrate=N/A speed=15.6x    frame=14666 fps=374 q=-0.0 size=N/A time=00:10:11.69 bitrate=N/A speed=15.6x    frame=14858 fps=374 q=-0.0 size=N/A time=00:10:19.70 bitrate=N/A speed=15.6x    frame=15056 fps=374 q=-0.0 size=N/A time=00:10:27.96 bitrate=N/A speed=15.6x    frame=15230 fps=373 q=-0.0 size=N/A time=00:10:35.21 bitrate=N/A speed=15.6x    frame=15425 fps=374 q=-0.0 size=N/A time=00:10:43.35 bitrate=N/A speed=15.6x    frame=15637 fps=374 q=-0.0 size=N/A time=00:10:52.19 bitrate=N/A speed=15.6x    frame=15837 fps=374 q=-0.0 size=N/A time=00:11:00.53 bitrate=N/A speed=15.6x    frame=16044 fps=374 q=-0.0 size=N/A time=00:11:09.16 bitrate=N/A speed=15.6x    frame=16239 fps=374 q=-0.0 size=N/A time=00:11:17.30 bitrate=N/A speed=15.6x    frame=16441 fps=375 q=-0.0 size=N/A time=00:11:25.72 bitrate=N/A speed=15.6x    frame=16644 fps=375 q=-0.0 size=N/A time=00:11:34.19 bitrate=N/A speed=15.6x    frame=16842 fps=375 q=-0.0 size=N/A time=00:11:42.45 bitrate=N/A speed=15.6x    frame=17053 fps=375 q=-0.0 size=N/A time=00:11:51.25 bitrate=N/A speed=15.7x    frame=17259 fps=376 q=-0.0 size=N/A time=00:11:59.84 bitrate=N/A speed=15.7x    frame=17461 fps=376 q=-0.0 size=N/A time=00:12:08.26 bitrate=N/A speed=15.7x    frame=17658 fps=376 q=-0.0 size=N/A time=00:12:16.48 bitrate=N/A speed=15.7x    frame=17848 fps=376 q=-0.0 size=N/A time=00:12:24.41 bitrate=N/A speed=15.7x    frame=18052 fps=376 q=-0.0 size=N/A time=00:12:32.91 bitrate=N/A speed=15.7x    frame=18250 fps=376 q=-0.0 size=N/A time=00:12:41.17 bitrate=N/A speed=15.7x    frame=18448 fps=376 q=-0.0 size=N/A time=00:12:49.43 bitrate=N/A speed=15.7x    frame=18652 fps=376 q=-0.0 size=N/A time=00:12:57.94 bitrate=N/A speed=15.7x    frame=18868 fps=377 q=-0.0 size=N/A time=00:13:06.95 bitrate=N/A speed=15.7x    frame=19072 fps=377 q=-0.0 size=N/A time=00:13:15.46 bitrate=N/A speed=15.7x    frame=19279 fps=377 q=-0.0 size=N/A time=00:13:24.09 bitrate=N/A speed=15.7x    frame=19474 fps=377 q=-0.0 size=N/A time=00:13:32.22 bitrate=N/A speed=15.7x    frame=19688 fps=378 q=-0.0 size=N/A time=00:13:41.15 bitrate=N/A speed=15.7x    frame=19904 fps=378 q=-0.0 size=N/A time=00:13:50.16 bitrate=N/A speed=15.8x    frame=20112 fps=378 q=-0.0 size=N/A time=00:13:58.83 bitrate=N/A speed=15.8x    frame=20315 fps=378 q=-0.0 size=N/A time=00:14:07.30 bitrate=N/A speed=15.8x    frame=20507 fps=378 q=-0.0 size=N/A time=00:14:15.31 bitrate=N/A speed=15.8x    frame=20703 fps=378 q=-0.0 size=N/A time=00:14:23.48 bitrate=N/A speed=15.8x    frame=20906 fps=378 q=-0.0 size=N/A time=00:14:31.95 bitrate=N/A speed=15.8x    frame=21113 fps=379 q=-0.0 size=N/A time=00:14:40.58 bitrate=N/A speed=15.8x    frame=21310 fps=379 q=-0.0 size=N/A time=00:14:48.80 bitrate=N/A speed=15.8x    frame=21518 fps=379 q=-0.0 size=N/A time=00:14:57.47 bitrate=N/A speed=15.8x    frame=21717 fps=379 q=-0.0 size=N/A time=00:15:05.77 bitrate=N/A speed=15.8x    frame=21925 fps=379 q=-0.0 size=N/A time=00:15:14.45 bitrate=N/A speed=15.8x    frame=22118 fps=379 q=-0.0 size=N/A time=00:15:22.50 bitrate=N/A speed=15.8x    frame=22331 fps=379 q=-0.0 size=N/A time=00:15:31.38 bitrate=N/A speed=15.8x    frame=22535 fps=380 q=-0.0 size=N/A time=00:15:39.89 bitrate=N/A speed=15.8x    frame=22737 fps=380 q=-0.0 size=N/A time=00:15:48.32 bitrate=N/A speed=15.8x    frame=22934 fps=380 q=-0.0 size=N/A time=00:15:56.53 bitrate=N/A speed=15.8x    frame=23130 fps=380 q=-0.0 size=N/A time=00:16:04.71 bitrate=N/A speed=15.8x    frame=23340 fps=380 q=-0.0 size=N/A time=00:16:13.47 bitrate=N/A speed=15.8x    frame=23537 fps=380 q=-0.0 size=N/A time=00:16:21.68 bitrate=N/A speed=15.8x    frame=23746 fps=380 q=-0.0 size=N/A time=00:16:30.40 bitrate=N/A speed=15.9x    frame=23952 fps=380 q=-0.0 size=N/A time=00:16:38.99 bitrate=N/A speed=15.9x    frame=24147 fps=380 q=-0.0 size=N/A time=00:16:47.13 bitrate=N/A speed=15.9x    frame=24347 fps=380 q=-0.0 size=N/A time=00:16:55.47 bitrate=N/A speed=15.9x    frame=24548 fps=380 q=-0.0 size=N/A time=00:17:03.85 bitrate=N/A speed=15.9x    frame=24756 fps=381 q=-0.0 size=N/A time=00:17:12.53 bitrate=N/A speed=15.9x    frame=24962 fps=381 q=-0.0 size=N/A time=00:17:21.12 bitrate=N/A speed=15.9x    frame=25179 fps=381 q=-0.0 size=N/A time=00:17:30.17 bitrate=N/A speed=15.9x    frame=25379 fps=381 q=-0.0 size=N/A time=00:17:38.51 bitrate=N/A speed=15.9x    frame=25581 fps=381 q=-0.0 size=N/A time=00:17:46.94 bitrate=N/A speed=15.9x    frame=25780 fps=381 q=-0.0 size=N/A time=00:17:55.24 bitrate=N/A speed=15.9x    frame=25985 fps=381 q=-0.0 size=N/A time=00:18:03.79 bitrate=N/A speed=15.9x    frame=26188 fps=381 q=-0.0 size=N/A time=00:18:12.25 bitrate=N/A speed=15.9x    frame=26397 fps=382 q=-0.0 size=N/A time=00:18:20.97 bitrate=N/A speed=15.9x    frame=26600 fps=382 q=-0.0 size=N/A time=00:18:29.44 bitrate=N/A speed=15.9x    frame=26805 fps=382 q=-0.0 size=N/A time=00:18:37.99 bitrate=N/A speed=15.9x    frame=26995 fps=382 q=-0.0 size=N/A time=00:18:45.91 bitrate=N/A speed=15.9x    frame=27184 fps=382 q=-0.0 size=N/A time=00:18:53.79 bitrate=N/A speed=15.9x    frame=27378 fps=382 q=-0.0 size=N/A time=00:19:01.89 bitrate=N/A speed=15.9x    frame=27577 fps=381 q=-0.0 size=N/A time=00:19:10.19 bitrate=N/A speed=15.9x    frame=27776 fps=382 q=-0.0 size=N/A time=00:19:18.49 bitrate=N/A speed=15.9x    frame=27969 fps=382 q=-0.0 size=N/A time=00:19:26.54 bitrate=N/A speed=15.9x    frame=28173 fps=382 q=-0.0 size=N/A time=00:19:35.04 bitrate=N/A speed=15.9x    frame=28378 fps=382 q=-0.0 size=N/A time=00:19:43.59 bitrate=N/A speed=15.9x    frame=28575 fps=382 q=-0.0 size=N/A time=00:19:51.81 bitrate=N/A speed=15.9x    frame=28760 fps=382 q=-0.0 size=N/A time=00:19:59.53 bitrate=N/A speed=15.9x    frame=28940 fps=381 q=-0.0 size=N/A time=00:20:07.03 bitrate=N/A speed=15.9x    frame=29115 fps=381 q=-0.0 size=N/A time=00:20:14.33 bitrate=N/A speed=15.9x    frame=29304 fps=381 q=-0.0 size=N/A time=00:20:22.22 bitrate=N/A speed=15.9x    frame=29490 fps=381 q=-0.0 size=N/A time=00:20:29.97 bitrate=N/A speed=15.9x    frame=29672 fps=381 q=-0.0 size=N/A time=00:20:37.56 bitrate=N/A speed=15.9x    frame=29859 fps=381 q=-0.0 size=N/A time=00:20:45.36 bitrate=N/A speed=15.9x    frame=30033 fps=380 q=-0.0 size=N/A time=00:20:52.62 bitrate=N/A speed=15.9x    frame=30224 fps=380 q=-0.0 size=N/A time=00:21:00.59 bitrate=N/A speed=15.9x    frame=30427 fps=380 q=-0.0 size=N/A time=00:21:09.05 bitrate=N/A speed=15.9x    frame=30626 fps=380 q=-0.0 size=N/A time=00:21:17.35 bitrate=N/A speed=15.9x    frame=30831 fps=380 q=-0.0 size=N/A time=00:21:25.90 bitrate=N/A speed=15.9x    frame=31023 fps=380 q=-0.0 size=N/A time=00:21:33.91 bitrate=N/A speed=15.9x    frame=31222 fps=380 q=-0.0 size=N/A time=00:21:42.21 bitrate=N/A speed=15.9x    frame=31422 fps=380 q=-0.0 size=N/A time=00:21:50.55 bitrate=N/A speed=15.9x    frame=31603 fps=380 q=-0.0 size=N/A time=00:21:58.10 bitrate=N/A speed=15.9x    frame=31801 fps=380 q=-0.0 size=N/A time=00:22:06.36 bitrate=N/A speed=15.9x    frame=31991 fps=380 q=-0.0 size=N/A time=00:22:14.29 bitrate=N/A speed=15.9x    frame=32188 fps=380 q=-0.0 size=N/A time=00:22:22.50 bitrate=N/A speed=15.9x    frame=32397 fps=380 q=-0.0 size=N/A time=00:22:31.22 bitrate=N/A speed=15.9x    frame=32599 fps=380 q=-0.0 size=N/A time=00:22:39.64 bitrate=N/A speed=15.9x    frame=32749 fps=380 q=-0.0 size=N/A time=00:22:45.90 bitrate=N/A speed=15.8x    frame=32919 fps=379 q=-0.0 size=N/A time=00:22:52.99 bitrate=N/A speed=15.8x    frame=33109 fps=379 q=-0.0 size=N/A time=00:23:00.92 bitrate=N/A speed=15.8x    frame=33299 fps=379 q=-0.0 size=N/A time=00:23:08.84 bitrate=N/A speed=15.8x    frame=33478 fps=379 q=-0.0 size=N/A time=00:23:16.31 bitrate=N/A speed=15.8x    frame=33639 fps=379 q=-0.0 size=N/A time=00:23:23.02 bitrate=N/A speed=15.8x    frame=33776 fps=378 q=-0.0 size=N/A time=00:23:28.74 bitrate=N/A speed=15.8x    frame=33902 fps=377 q=-0.0 size=N/A time=00:23:33.99 bitrate=N/A speed=15.7x    frame=34081 fps=377 q=-0.0 size=N/A time=00:23:41.46 bitrate=N/A speed=15.7x    frame=34248 fps=377 q=-0.0 size=N/A time=00:23:48.42 bitrate=N/A speed=15.7x    frame=34373 fps=376 q=-0.0 size=N/A time=00:23:53.64 bitrate=N/A speed=15.7x    frame=34536 fps=376 q=-0.0 size=N/A time=00:24:00.43 bitrate=N/A speed=15.7x    [Parsed_psnr_16 @ 0000017df8d89b40] PSNR y:48.381442 u:49.783390 v:49.828138 average:48.806327 min:37.715537 max:inf
[out#0/null @ 0000017dea121d00] video:14903KiB audio:271276KiB subtitle:0KiB other streams:0KiB global headers:0KiB muxing overhead: unknown
frame=34683 fps=376 q=-0.0 Lsize=N/A time=00:24:06.57 bitrate=N/A speed=15.7x    
